version=1
nRows=21
nColumns=19
inDegrees=yes
endheader
time	ground_force_vx	ground_force_vy	ground_force_vz	ground_force_px	ground_force_py	ground_force_pz	1_ground_force_vx	1_ground_force_vy	1_ground_force_vz	1_ground_force_px	1_ground_force_py	1_ground_force_pz	ground_torque_x	ground_torque_y	ground_torque_z	1_ground_torque_x	1_ground_torque_y	1_ground_torque_z
74.99	-38.269650	813.202515	56.354702	0.108226	-0.000000	-0.083091	-29.242594	-41.925144	16.046669	0.164157	-0.000000	0.558463	-0.000000	-17.812755	0.000000	0.000000	13.936373	0.000000
75.00	-63.655037	785.508423	83.613251	0.088549	-0.000000	-0.093545	-0.000000	0.000000	-0.000000	0.000000	0.000000	0.250000	0.000000	-36.662194	-0.000000	-0.000000	0.000000	-0.000000
75.01	-54.681698	777.248230	78.246193	0.043860	-0.000000	-0.077731	-7.319111	26.538912	2.436987	0.124811	-0.000000	0.352222	0.000000	9.633342	-0.000000	-0.000000	-10.691637	0.000000
75.02	-52.195534	788.800842	38.365856	0.072329	-0.000000	-0.104129	-6.101911	2.278568	-34.157188	-3.857854	0.000000	-0.721177	-0.000000	-21.936839	0.000000	0.000000	130.545550	-0.000000
75.03	-60.682842	689.593506	32.234718	0.077200	-0.000000	-0.109532	9.212210	-44.859833	21.437988	0.021323	-0.000000	0.117615	-0.000000	-25.104099	0.000000	0.000000	8.166286	-0.000000
75.04	-14.409130	692.122009	77.148590	0.064384	-0.000000	-0.065092	-20.417622	18.771820	-13.447621	0.368034	-0.000000	-0.293089	0.000000	-20.240547	-0.000000	-0.000000	-33.070147	0.000000
75.05	-62.425896	696.586487	65.236916	0.042117	-0.000000	-0.096825	3.958311	5.135817	26.413212	-0.336921	0.000000	2.022796	-0.000000	6.587031	-0.000000	0.000000	0.337467	-0.000000
75.06	-20.690645	678.342163	39.238182	0.047925	-0.000000	-0.097628	-0.000000	0.000000	-0.000000	0.000000	0.000000	0.250000	-0.000000	-9.868367	0.000000	-0.000000	0.000000	-0.000000
75.07	-3.768586	602.338867	32.936169	0.005734	-0.000000	-0.089660	-0.000000	0.000000	-0.000000	0.000000	0.000000	0.250000	-0.000000	-36.780802	0.000000	-0.000000	0.000000	-0.000000
75.08	-37.844810	606.744751	44.133659	0.038919	-0.000000	-0.090044	-0.000000	0.000000	-0.000000	0.000000	0.000000	0.250000	0.000000	3.931006	-0.000000	-0.000000	0.000000	-0.000000
75.09	1.960278	649.720276	39.858326	0.046476	-0.000000	-0.084385	-0.000000	0.000000	-0.000000	0.000000	0.000000	0.250000	-0.000000	8.548148	0.000000	-0.000000	0.000000	-0.000000
75.10	9.528137	600.466736	34.900784	-0.013570	0.000000	-0.102546	-0.000000	0.000000	-0.000000	0.000000	0.000000	0.250000	-0.000000	-30.231667	0.000000	-0.000000	0.000000	-0.000000
75.11	-6.058601	558.383179	36.740700	-0.028572	0.000000	-0.081338	-16.975073	-25.877150	12.265115	-0.095336	0.000000	0.507951	-0.000000	-8.834346	0.000000	-0.000000	-14.666647	0.000000
75.12	24.414654	585.336731	44.004120	0.033372	-0.000000	-0.060925	-0.000000	0.000000	-0.000000	0.000000	0.000000	0.250000	0.000000	6.178622	-0.000000	-0.000000	0.000000	-0.000000
75.13	10.022336	557.277649	40.371300	-0.036078	0.000000	-0.090242	28.729187	20.214319	18.351259	0.779588	-0.000000	0.849698	-0.000000	-10.852205	0.000000	0.000000	12.200042	-0.000000
75.14	46.817448	575.975037	44.819633	-0.054184	0.000000	-0.079320	-31.706635	-10.968408	-10.912724	0.465868	-0.000000	1.375253	-0.000000	-18.571449	0.000000	0.000000	11.599591	-0.000000
75.15	14.582701	568.427734	43.392899	-0.055755	0.000000	-0.084031	-12.710924	-32.554230	18.315544	0.609891	-0.000000	0.237656	-0.000000	-4.012702	0.000000	0.000000	15.354028	-0.000000
75.16	39.030289	574.162964	34.601841	-0.024222	0.000000	-0.062365	22.254562	28.711021	-12.895686	0.474615	-0.000000	0.490447	0.000000	1.017949	-0.000000	-0.000000	-0.740303	0.000000
75.17	67.612289	547.106506	45.906883	-0.049683	0.000000	-0.058365	-0.000000	0.000000	-0.000000	0.000000	0.000000	0.250000	-0.000000	-18.136258	0.000000	-0.000000	0.000000	-0.000000
75.18	31.645731	544.511597	37.798389	-0.105764	0.000000	-0.079100	-13.807873	-30.864042	-0.376851	-0.174345	0.000000	0.375074	-0.000000	-8.194081	0.000000	0.000000	3.447212	-0.000000
75.19	76.787369	577.103760	48.795307	-0.121767	0.000000	-0.054135	-0.000000	0.000000	-0.000000	0.000000	0.000000	0.250000	0.000000	-4.209039	-0.000000	-0.000000	0.000000	-0.000000
